<svg width="200" height="200" xmlns="http://www.w3.org/2000/svg" xmlns:xlink="http://www.w3.org/1999/xlink" xml:space="preserve" overflow="hidden"><defs><clipPath id="clip0"><rect x="197" y="279" width="200" height="200"/></clipPath></defs><g clip-path="url(#clip0)" transform="translate(-197 -279)"><path d="M281.86 458.552 376.167 435.79 376.167 332.206 307.529 299.521 217.833 319.092 217.833 424.077ZM306.015 312.646 350.885 334.013 314.56 342.154 283.627 349.087 241.921 326.629ZM230.333 416.61 230.333 334.587 276.469 359.431 276.469 441.454ZM363.667 425.948 288.969 443.979 288.969 360.702 321.435 353.423 363.667 343.958Z" fill="#FFFFFF"/><path d="M304.688 316.888 308.854 316.888 308.854 325.221 304.688 325.221Z" fill="#FFFFFF"/><path d="M304.688 360.638 308.854 360.638 308.854 368.971 304.688 368.971Z" fill="#FFFFFF"/><path d="M304.688 375.221 308.854 375.221 308.854 383.554 304.688 383.554Z" fill="#FFFFFF"/><path d="M304.688 331.471 308.854 331.471 308.854 339.804 304.688 339.804Z" fill="#FFFFFF"/><path d="M304.688 389.804 308.854 389.804 308.854 398.138 304.688 398.138Z" fill="#FFFFFF"/><path d="M335.088 417.398 336.806 413.602 344.398 417.037 342.681 420.833Z" fill="#FFFFFF"/><path d="M294.869 402.766 303.012 400.992 303.899 405.063 295.756 406.837Z" fill="#FFFFFF"/><path d="M237.877 415.202 246.02 413.427 246.907 417.499 238.764 419.273Z" fill="#FFFFFF"/><path d="M321.8 411.389 323.517 407.593 331.108 411.026 329.391 414.823Z" fill="#FFFFFF"/><path d="M348.375 423.409 350.092 419.613 357.685 423.048 355.967 426.844Z" fill="#FFFFFF"/><path d="M308.516 405.378 310.233 401.581 317.825 405.015 316.108 408.812Z" fill="#FFFFFF"/><path d="M252.124 412.094 260.267 410.32 261.154 414.391 253.011 416.165Z" fill="#FFFFFF"/><path d="M266.374 408.986 274.516 407.212 275.403 411.283 267.261 413.057Z" fill="#FFFFFF"/></g></svg>