<svg width="199" height="200" xmlns="http://www.w3.org/2000/svg" xmlns:xlink="http://www.w3.org/1999/xlink" xml:space="preserve" overflow="hidden"><defs><clipPath id="clip0"><rect x="191" y="251" width="199" height="200"/></clipPath></defs><g clip-path="url(#clip0)" transform="translate(-191 -251)"><path d="M84.4361 178.654 178.271 156.006 178.271 52.9402 109.977 20.4182 20.7292 39.8912 20.7292 144.352ZM108.47 33.4776 153.116 54.7374 116.973 62.8384 86.194 69.7371 44.6962 47.391ZM33.1667 136.922 33.1667 55.3096 79.0714 80.0291 79.0714 161.642ZM165.833 146.213 91.5089 164.154 91.5089 81.2936 123.813 74.0508 165.833 64.6335Z" fill="#FFFFFF" transform="matrix(1 0 0 1.00503 191 251)"/><path d="M107.149 37.6981 111.295 37.6981 111.295 45.9897 107.149 45.9897Z" fill="#FFFFFF" transform="matrix(1 0 0 1.00503 191 251)"/><path d="M107.149 81.2293 111.295 81.2293 111.295 89.521 107.149 89.521Z" fill="#FFFFFF" transform="matrix(1 0 0 1.00503 191 251)"/><path d="M107.149 95.7397 111.295 95.7397 111.295 104.031 107.149 104.031Z" fill="#FFFFFF" transform="matrix(1 0 0 1.00503 191 251)"/><path d="M107.149 52.2085 111.295 52.2085 111.295 60.5001 107.149 60.5001Z" fill="#FFFFFF" transform="matrix(1 0 0 1.00503 191 251)"/><path d="M107.149 110.25 111.295 110.25 111.295 118.542 107.149 118.542Z" fill="#FFFFFF" transform="matrix(1 0 0 1.00503 191 251)"/><path d="M140.076 133.495 144.225 133.495 144.225 141.794 140.076 141.794Z" fill="#FFFFFF" transform="matrix(0.411865 -0.914889 0.910315 0.413934 149.183 462.294)"/><path d="M97.7479 122.245 106.041 122.245 106.041 126.392 97.7479 126.392Z" fill="#FFFFFF" transform="matrix(0.976852 -0.213915 0.212845 0.981761 166.875 275.66)"/><path d="M41.0282 134.621 49.3218 134.621 49.3218 138.768 41.0282 138.768Z" fill="#FFFFFF" transform="matrix(0.976852 -0.213915 0.212845 0.981761 162.941 263.812)"/><path d="M126.843 127.509 130.993 127.509 130.993 135.806 126.843 135.806Z" fill="#FFFFFF" transform="matrix(0.411754 -0.91494 0.910365 0.413823 146.868 446.677)"/><path d="M153.308 139.48 157.457 139.48 157.457 147.779 153.308 147.779Z" fill="#FFFFFF" transform="matrix(0.411865 -0.914889 0.910315 0.413934 151.505 477.933)"/><path d="M113.613 121.524 117.763 121.524 117.763 129.823 113.613 129.823Z" fill="#FFFFFF" transform="matrix(0.411754 -0.91494 0.910365 0.413823 144.546 431.038)"/><path d="M55.2081 131.528 63.5017 131.528 63.5017 135.674 55.2081 135.674Z" fill="#FFFFFF" transform="matrix(0.976852 -0.213915 0.212845 0.981761 163.924 266.775)"/><path d="M69.388 128.434 77.6816 128.434 77.6816 132.581 69.388 132.581Z" fill="#FFFFFF" transform="matrix(0.976852 -0.213915 0.212845 0.981761 164.908 269.737)"/></g></svg>